<svg width="3154" height="734" viewBox="0 0 3154 734" fill="none" xmlns="http://www.w3.org/2000/svg">
<path d="M930.3 297.7C923.1 311.4 925.6 334.7 906.9 336.8C906.5 362 900.1 380.7 901.7 401.9C903.8 429.6 920.4 452.5 912.1 482.6C906.8 502 888.1 516.8 883.5 539.9C882.4 545.2 885 552.9 883.5 558.1C873.7 592.3 851.8 622.7 852.2 662.3C834.6 683.8 813.1 701.4 802.7 730C787.3 732.8 755.9 737.3 748 724.8C746.4 710.1 751.4 702.1 758.4 696.1C767.2 698.6 773.6 703.5 779.2 709.1C813.8 695.1 826.6 659.3 828.7 612.7C818.6 626.9 807.5 640.2 807.9 664.8C792.4 670 770.5 678.6 755.8 670C746.7 675.6 748.2 691.9 748 706.5C736.1 721.5 713.2 725.5 693.3 732.5C686.1 719.5 686.7 696.7 695.9 688.2C695.9 680.4 689.2 679.3 688.1 672.6C701.1 623.2 647 603.4 664.7 558C663.1 541.4 654.4 531.9 654.3 513.7C620.3 536.3 587.7 547.9 573.6 586.6C567.6 585.8 563.8 587.3 563.2 591.8C550.6 580.5 544.6 598.1 524.1 589.2C529 584.6 521 581.6 526.7 576.2C522 575.9 521.2 579.3 516.3 578.8C519.7 553.5 534.6 539.8 550.2 526.7C535.1 523.9 525.3 537 516.3 531.9C512 516.8 564.1 513.8 542.3 508.5C542.6 502.8 553.4 507.4 557.9 505.9C543.9 501.1 536.1 505.6 521.4 500.7C531.4 490.4 520.1 489.4 505.8 490.3C512.3 481.1 508.6 482.9 498 479.9C498.8 473.3 508.1 480.2 511 479.9C516.6 479.2 514.6 475.4 518.8 474.7C538 471.2 569.3 484 578.7 474.7C577.9 482 586.3 478.5 594.3 474.7C593.9 436.6 601.8 418.5 620.3 396.6C626.4 397.5 630.3 396.2 633.3 394C659.6 363 682.2 328.3 742.7 331.5C753.1 328 754.2 315.2 763.5 310.7C749.4 301.8 786.7 286.1 792.1 271.6C796.3 270.8 796.6 274.1 799.9 274.2C795.3 269.9 802.2 265.5 799.9 256C804.7 261 808.7 253.8 812.9 250.8C812.6 244.4 804.3 250.3 805.1 253.4C803.4 246.3 807.8 235 807.7 224.8C814 225.9 813.3 220 820.7 222.2C828.3 218.5 831.4 210.4 833.7 201.4C842.5 194.6 852 188.5 859.7 180.6C858.6 161.3 863.9 148.4 877.9 144.1C875.8 154.8 881.9 157.4 880.5 167.5C888.6 170.2 894.2 162.2 901.3 172.7C909.4 167.8 911.4 156.8 914.3 146.7C945.6 160.6 905.2 206.7 929.9 222.2C926.9 239.9 916.7 280.3 930.3 297.7ZM839.2 571.1C831.3 564.7 841.1 554.2 839.2 545.1C830.9 543.8 827.8 537.4 818.4 537.3C821.2 551 829 573.5 839.2 571.1ZM787.1 638.8C820.4 617 806.6 560 774.1 547.6C760.6 557.8 740.1 557.1 735 576.2C729.5 596.7 742.6 622.6 750.6 638.7C759.2 629.5 776.9 635.3 787.1 638.8ZM716.8 683.1C732.1 675.6 729 649.5 727.2 636.2C723.3 607 701.9 573 701.2 545C710.1 531.3 732.1 530.8 740.3 516.3C725 509.9 713.6 499.6 701.2 490.3C689.4 507.1 684.3 532.8 685.6 552.8C686.5 566.7 694.3 578.7 696 591.9C698.1 608.1 694.6 620.7 698.6 633.6C703.4 649.2 721.1 661.3 716.8 683.1Z" fill="#CCCCCC"/>
<path fill-rule="evenodd" clip-rule="evenodd" d="M539.9 18C541.6 18 543.4 18 545.1 18C548.7 26.6 548.6 38.8 550.3 49.3C557.8 47.2 551.9 31.8 563.3 33.7C565.8 52.3 567.6 81.7 589.3 72.8C604 94.5 639.8 95.2 659.6 111.9C674.8 109.7 686.6 115.9 696.1 111.9C704.5 109.6 701.5 118.7 706.5 119.7C724.2 118.8 749.8 117.3 774.2 119.7C787.6 121 800.8 128.5 810.7 127.5C826.9 125.9 836.1 105.6 852.4 117.1C852.4 118 852.4 118.8 852.4 119.7C816.8 156.8 732.2 150.6 677.9 161.4C679.3 169.6 688.6 169.8 685.7 182.2C671.2 186.8 659.9 194.6 646.6 200.4C640.5 200.4 634.4 200.4 628.4 200.4C603.5 199.5 579.8 163.6 597.1 145.7C540.2 140.1 524.1 93.7 493 62.3C503.3 55.4 488.9 52.4 495.6 44.1C500.6 45.2 502.1 49.7 508.6 49.3C510.2 53.1 511.7 49 508.6 49.3C508 45.3 498.6 37.2 506 33.7C515.1 33.2 514.6 42.5 521.6 44.1C519.9 38.2 514.9 22.3 524.2 20.7C529.6 24.8 528.8 35.2 534.6 38.9C534.6 40.6 534.6 42.4 534.6 44.1C537.9 43.5 537.2 38.9 534.6 38.9C532.5 28 539.7 26.5 539.9 18Z" fill="#1C3664"/>
<path d="M506.109 148.125C506.109 158.768 496.34 164.09 476.801 164.09C461.392 164.09 424.776 156.941 366.953 142.645C339.948 158.053 326.445 177.434 326.445 200.785C326.445 212.064 330.337 219.848 338.121 224.137C349.4 223.184 357.898 222.707 363.617 222.707C380.138 222.707 388.398 224.693 388.398 228.664C388.398 231.206 384.03 232.477 375.293 232.477C364.173 232.477 352.1 230.888 339.074 227.711C321.441 230.253 300.949 237.083 277.598 248.203C218.186 276.638 188.48 313.492 188.48 358.766C188.48 388.789 204.684 407.852 237.09 415.953C231.212 406.263 228.273 395.064 228.273 382.355C228.273 351.061 244.238 322.229 276.168 295.859C308.098 269.49 343.046 256.305 381.012 256.305C398.486 256.305 412.385 260.594 422.711 269.172C433.036 277.75 438.199 289.267 438.199 303.723C438.199 334.699 421.202 362.658 387.207 387.598C353.212 412.379 314.928 424.77 272.355 424.77C263.777 424.77 255.755 424.293 248.289 423.34C263.539 443.832 286.176 454.078 316.199 454.078C334.785 454.078 349.956 451.298 361.711 445.738L364.57 445.262C365.523 445.579 366 446.215 366 447.168C366 449.392 360.122 451.695 348.367 454.078C336.612 456.62 325.889 457.891 316.199 457.891C282.999 457.891 257.661 445.897 240.188 421.91C215.883 416.509 196.82 407.375 183 394.508C169.339 381.482 162.508 366.391 162.508 349.234C162.508 326.201 172.039 304.676 191.102 284.66C210.164 264.486 235.581 249.236 267.352 238.91C286.573 232.556 308.574 227.949 333.355 225.09C315.723 217.624 306.906 205.789 306.906 189.586C306.906 168.776 319.773 151.382 345.508 137.402C308.654 128.507 278.233 124.059 254.246 124.059C207.225 124.059 167.115 135.814 133.914 159.324C100.872 182.835 84.3516 211.27 84.3516 244.629C84.3516 259.561 88.7201 272.349 97.457 282.992C106.194 293.635 116.678 298.957 128.91 298.957C137.329 298.957 141.539 297.607 141.539 294.906C141.539 293.477 140.03 293 137.012 293.477C128.592 293.477 124.383 289.585 124.383 281.801C124.383 277.353 126.21 273.54 129.863 270.363C133.676 267.186 138.203 265.598 143.445 265.598C153.612 265.598 158.695 270.522 158.695 280.371C158.695 286.884 155.757 292.444 149.879 297.051C144.16 301.499 137.171 303.723 128.91 303.723C114.137 303.723 101.508 297.13 91.0234 283.945C80.6979 270.602 75.5352 254.557 75.5352 235.812C75.5352 207.695 87.7669 181.882 112.23 158.371C141.301 130.413 182.126 116.434 234.707 116.434C263.936 116.434 302.855 122.391 351.465 134.305C373.387 123.661 398.883 118.34 427.953 118.34C449.557 118.34 467.984 121.279 483.234 127.156C498.484 132.875 506.109 139.865 506.109 148.125ZM501.105 147.648C501.105 141.453 494.513 135.973 481.328 131.207C468.302 126.441 453.29 124.059 436.293 124.059C412.941 124.059 391.655 129.142 372.434 139.309C414.53 152.97 449.954 159.801 478.707 159.801C493.639 159.801 501.105 155.75 501.105 147.648ZM433.91 301.816C433.91 290.379 429.383 280.927 420.328 273.461C411.273 265.995 399.836 262.262 386.016 262.262C351.862 262.262 318.503 276.479 285.938 304.914C253.372 333.19 237.09 362.102 237.09 391.648C237.09 400.227 239.711 408.964 244.953 417.859C254.167 419.607 262.665 420.48 270.449 420.48C307.939 420.48 344.555 407.534 380.297 381.641C416.039 355.589 433.91 328.98 433.91 301.816ZM622.152 340.418C622.152 343.754 610.556 359.163 587.363 386.645C568.618 409.202 553.845 420.48 543.043 420.48C535.736 420.48 529.779 417.78 525.172 412.379C520.565 406.819 518.262 399.909 518.262 391.648C518.262 383.07 520.803 373.777 525.887 363.77C510.001 386.009 497.849 401.021 489.43 408.805C481.01 416.589 472.829 420.48 464.887 420.48C456.467 420.48 449.398 416.906 443.68 409.758C437.961 402.451 435.102 393.316 435.102 382.355C435.102 351.855 456.626 324.85 499.676 301.34C518.579 290.855 533.829 285.613 545.426 285.613C555.275 285.613 560.199 290.379 560.199 299.91C560.199 302.611 559.564 306.185 558.293 310.633L570.445 287.52C575.211 288.632 579.421 289.188 583.074 289.188C587.363 289.188 592.923 288.632 599.754 287.52L557.578 357.336C542.964 381.799 535.656 397.923 535.656 405.707C535.656 413.173 538.754 416.906 544.949 416.906C551.303 416.906 561.47 409.678 575.449 395.223C589.428 380.608 603.646 362.658 618.102 341.371C619.055 339.783 619.928 338.988 620.723 338.988C621.676 338.988 622.152 339.465 622.152 340.418ZM556.625 300.863C556.625 293.079 553.051 289.188 545.902 289.188C531.288 289.188 512.066 303.484 488.238 332.078C464.569 360.672 452.734 383.785 452.734 401.418C452.734 411.743 457.341 416.906 466.555 416.906C477.516 416.906 496.499 398.717 523.504 362.34C545.585 332.475 556.625 311.983 556.625 300.863ZM785.852 340.418C785.852 342.96 777.273 353.841 760.117 373.062C740.896 394.349 716.035 413.332 685.535 430.012L673.621 451.695C652.017 491.568 627.792 522.306 600.945 543.91C575.211 564.72 552.971 575.125 534.227 575.125C527.396 575.125 521.757 573.06 517.309 568.93C512.861 564.799 510.637 559.716 510.637 553.68C510.637 521.115 547.411 488.073 620.961 454.555C636.846 447.247 647.092 442.323 651.699 439.781L692.207 365.199C674.574 388.551 662.104 403.642 654.797 410.473C647.648 417.145 640.262 420.48 632.637 420.48C624.376 420.48 617.307 416.827 611.43 409.52C605.711 402.212 602.852 393.316 602.852 382.832C602.852 355.35 620.802 330.41 656.703 308.012C680.69 293.079 699.514 285.613 713.176 285.613C722.707 285.613 727.473 290.855 727.473 301.34C727.473 304.199 726.758 307.615 725.328 311.586L738.672 287.52C742.961 288.632 746.694 289.188 749.871 289.188C754.001 289.188 760.038 288.632 767.98 287.52C766.868 288.949 759.879 300.863 747.012 323.262L687.918 425.246C708.728 413.491 725.328 402.133 737.719 391.172C750.268 380.211 764.406 364.405 780.133 343.754C782.516 340.577 784.104 338.988 784.898 338.988C785.534 339.147 785.852 339.624 785.852 340.418ZM724.852 301.34C724.852 293.238 720.96 289.188 713.176 289.188C698.879 289.188 679.896 303.484 656.227 332.078C632.716 360.513 620.961 383.467 620.961 400.941C620.961 411.585 625.568 416.906 634.781 416.906C644.154 416.906 660.039 402.768 682.438 374.492C710.714 338.75 724.852 314.366 724.852 301.34ZM649.316 443.832C646.298 445.579 637.323 450.107 622.391 457.414C549.953 493.315 513.734 525.562 513.734 554.156C513.734 559.081 515.561 563.211 519.215 566.547C522.868 569.883 527.555 571.551 533.273 571.551C550.747 571.551 567.745 562.576 584.266 544.625C600.786 526.833 621.517 494.824 646.457 448.598C646.457 448.598 647.41 447.009 649.316 443.832ZM911.426 171.477C844.707 282.516 805.788 347.805 794.668 367.344C783.707 386.883 778.227 399.829 778.227 406.184C778.227 413.332 781.245 416.906 787.281 416.906C800.625 416.906 825.089 391.728 860.672 341.371C861.466 339.783 862.419 338.988 863.531 338.988C864.167 339.147 864.484 339.624 864.484 340.418C864.484 341.371 863.69 342.642 862.102 344.23L851.855 358.289C821.832 399.75 799.672 420.48 785.375 420.48C778.544 420.48 772.905 417.939 768.457 412.855C764.168 407.613 762.023 401.021 762.023 393.078C762.023 384.341 764.009 375.922 767.98 367.82C772.111 359.56 785.931 335.891 809.441 296.812C838.194 248.997 862.419 207.536 882.117 172.43C886.883 173.701 891.092 174.336 894.746 174.336C900.783 174.336 906.342 173.383 911.426 171.477ZM984.578 340.418C984.578 340.895 983.148 342.96 980.289 346.613L970.043 359.48C937.16 400.147 908.964 420.48 885.453 420.48C874.333 420.48 864.961 416.509 857.336 408.566C849.87 400.465 846.137 390.378 846.137 378.305C846.137 349.711 866.073 324.533 905.945 302.77C926.914 291.332 943.991 285.613 957.176 285.613C962.895 285.613 967.74 287.361 971.711 290.855C975.841 294.191 977.906 298.322 977.906 303.246C977.906 314.684 970.44 324.453 955.508 332.555C940.576 340.497 915.635 347.964 880.688 354.953C869.885 371.315 864.484 384.977 864.484 395.938C864.484 409.599 871.871 416.43 886.645 416.43C911.743 416.43 942.482 391.887 978.859 342.801C980.766 340.259 982.354 338.988 983.625 338.988C984.26 339.147 984.578 339.624 984.578 340.418ZM964.562 296.336C964.562 291.253 961.783 288.711 956.223 288.711C947.803 288.711 936.684 294.589 922.863 306.344C909.202 317.94 895.779 333.031 882.594 351.617C905.469 345.74 924.849 337.479 940.734 326.836C956.62 316.034 964.562 305.867 964.562 296.336ZM1852.16 53.7656C1852.16 57.737 1849.7 59.7227 1844.77 59.7227H1841.44C1836.51 59.0872 1830.32 58.7695 1822.85 58.7695C1786.32 58.7695 1742.23 75.2109 1690.61 108.094C1661.22 126.839 1636.6 146.06 1616.74 165.758C1596.25 185.932 1561.7 225.566 1513.09 284.66C1454.31 355.986 1408.4 403.801 1375.36 428.105C1364.4 436.207 1358.04 440.258 1356.3 440.258C1355.5 440.258 1355.03 439.94 1354.87 439.305C1354.87 439.146 1357.17 436.763 1361.78 432.156C1381.95 411.664 1402.76 371.792 1424.21 312.539C1443.43 259.641 1458.6 221.039 1469.72 196.734C1481 172.43 1492.99 152.176 1505.7 135.973C1508.72 132.16 1510.23 130.016 1510.23 129.539C1509.11 129.221 1507.92 129.857 1506.65 131.445L1504.27 133.828L1498.31 141.215C1487.99 154.082 1463.76 185.615 1425.64 235.812C1365.43 317.305 1312.61 375.922 1267.18 411.664C1242.72 430.727 1228.5 440.258 1224.53 440.258C1223.73 439.94 1223.26 439.464 1223.1 438.828C1223.1 438.352 1224.13 437.24 1226.2 435.492C1257.33 407.057 1287.12 364.405 1315.55 307.535C1344.14 250.507 1358.44 204.995 1358.44 171C1358.44 147.807 1352.8 129.46 1341.52 115.957C1330.24 102.296 1314.84 95.4648 1295.3 95.4648C1254.15 95.4648 1213.25 118.419 1172.58 164.328C1132.07 210.237 1111.82 256.543 1111.82 303.246C1111.82 322.626 1117.06 338.273 1127.55 350.188C1138.19 362.102 1152.01 368.059 1169.01 368.059C1204.91 368.059 1238.9 343.516 1270.99 294.43C1291.8 262.5 1302.21 234.065 1302.21 209.125C1302.21 197.37 1299.27 187.918 1293.39 180.77C1287.67 173.621 1280.05 170.047 1270.52 170.047C1264.8 170.047 1259.24 171.477 1253.84 174.336C1248.43 177.036 1245.73 179.816 1245.73 182.676C1245.73 183.629 1246.21 184.105 1247.16 184.105C1247.64 184.105 1248.43 183.947 1249.55 183.629C1253.52 182.993 1256.14 182.676 1257.41 182.676C1264.56 182.676 1268.13 186.727 1268.13 194.828C1268.13 199.753 1266.23 204.042 1262.41 207.695C1258.6 211.19 1254.15 212.938 1249.07 212.938C1239.22 212.938 1234.3 207.616 1234.3 196.973C1234.3 188.553 1237.95 181.246 1245.26 175.051C1252.57 168.697 1260.98 165.52 1270.52 165.52C1281.48 165.52 1290.21 169.491 1296.73 177.434C1303.4 185.376 1306.73 195.94 1306.73 209.125C1306.73 238.99 1293.07 272.667 1265.75 310.156C1235.41 351.458 1203 372.109 1168.53 372.109C1148.52 372.109 1131.99 364.484 1118.97 349.234C1106.1 333.826 1099.67 314.445 1099.67 291.094C1099.67 269.172 1105.47 246.297 1117.06 222.469C1128.82 198.641 1144.86 176.957 1165.2 157.418C1210.79 113.098 1254.55 90.9375 1296.49 90.9375C1321.11 90.9375 1341.76 100.628 1358.44 120.008C1375.28 139.388 1383.7 163.216 1383.7 191.492C1383.7 221.833 1371.15 258.688 1346.05 302.055C1320.95 345.263 1290.53 382.435 1254.79 413.57C1251.29 416.747 1249.55 418.495 1249.55 418.812C1249.71 419.448 1250.02 419.766 1250.5 419.766C1255.42 419.766 1271.23 405.945 1297.92 378.305C1335.73 339.068 1386.8 277.115 1451.13 192.445C1469.56 168.141 1487.67 146.378 1505.46 127.156C1523.25 107.935 1534.21 98.3242 1538.34 98.3242C1539.3 98.3242 1539.77 98.8008 1539.77 99.7539C1539.77 100.23 1539.3 101.025 1538.34 102.137C1528.34 115.48 1520.23 129.062 1514.04 142.883C1507.05 158.609 1496.49 188.156 1482.35 231.523C1466.78 278.862 1452.64 314.922 1439.93 339.703C1426.59 365.279 1409.83 388.392 1389.66 409.043C1389.34 409.678 1389.02 410.234 1388.7 410.711C1388.86 411.188 1389.18 411.505 1389.66 411.664C1392.36 411.664 1403.71 401.259 1423.73 380.449C1437.71 365.993 1476.79 319.926 1540.96 242.246C1574.17 202.056 1603.87 170.365 1630.08 147.172C1656.29 123.82 1685.76 103.01 1718.48 84.7422C1763.12 59.6432 1802.04 47.0938 1835.24 47.0938C1846.52 47.0938 1852.16 49.3177 1852.16 53.7656ZM1599.82 241.77C1599.82 247.329 1597.44 252.572 1592.67 257.496C1588.07 262.262 1582.98 264.645 1577.42 264.645C1570.27 264.645 1566.7 261.07 1566.7 253.922C1566.7 248.68 1569.16 243.676 1574.09 238.91C1579.01 233.986 1584.17 231.523 1589.57 231.523C1596.4 231.523 1599.82 234.939 1599.82 241.77ZM1603.16 340.418C1603 340.895 1602.2 342.165 1600.77 344.23L1590.53 358.289C1560.66 399.75 1537.87 420.48 1522.14 420.48C1514.67 420.48 1508.4 417.859 1503.32 412.617C1498.39 407.216 1495.93 400.544 1495.93 392.602C1495.93 383.388 1501.41 369.409 1512.37 350.664L1549.54 287.52C1554.47 288.632 1558.36 289.188 1561.22 289.188C1565.51 289.188 1571.54 288.632 1579.33 287.52L1525.24 376.398C1517.45 389.266 1513.56 399.194 1513.56 406.184C1513.56 413.332 1517.3 416.906 1524.76 416.906C1538.9 416.906 1563.76 391.728 1599.34 341.371C1600.14 339.783 1600.93 338.988 1601.73 338.988C1602.68 338.988 1603.16 339.465 1603.16 340.418ZM1794.5 340.418C1794.5 343.754 1782.98 359.163 1759.95 386.645C1741.04 409.202 1726.19 420.48 1715.39 420.48C1708.24 420.48 1702.2 417.701 1697.28 412.141C1692.51 406.581 1690.13 399.75 1690.13 391.648C1690.13 384.5 1691.56 377.908 1694.42 371.871C1697.44 365.676 1705.14 353.523 1717.53 335.414C1730.4 316.352 1736.83 304.199 1736.83 298.957C1736.83 292.444 1733.42 289.188 1726.59 289.188C1703.39 289.188 1667.65 332.237 1619.36 418.336C1611.58 417.701 1606.89 417.383 1605.3 417.383C1599.74 417.383 1594.5 417.701 1589.57 418.336L1626.75 359.48C1647.87 325.803 1658.44 304.755 1658.44 296.336C1658.44 291.57 1656.45 289.188 1652.48 289.188C1644.38 289.188 1628.41 306.264 1604.59 340.418C1603.16 342.483 1602.04 343.595 1601.25 343.754C1600.46 343.754 1599.98 343.277 1599.82 342.324C1599.98 341.53 1600.3 340.895 1600.77 340.418L1605.3 334.461C1629.61 301.896 1645.97 285.613 1654.39 285.613C1659.79 285.613 1664.39 288.076 1668.21 293C1672.02 297.924 1673.93 303.802 1673.93 310.633C1673.93 320.799 1667.97 334.938 1656.05 353.047C1674.8 327.154 1689.18 309.441 1699.18 299.91C1709.35 290.379 1718.72 285.613 1727.3 285.613C1734.29 285.613 1740.17 288.473 1744.93 294.191C1749.7 299.91 1752.08 306.979 1752.08 315.398C1752.08 326.042 1744.77 342.324 1730.16 364.246C1715.23 386.645 1707.76 400.941 1707.76 407.137C1707.76 413.65 1711.02 416.906 1717.53 416.906C1731.67 416.906 1756.05 391.728 1790.68 341.371C1791.48 339.783 1792.27 338.988 1793.07 338.988C1794.02 338.988 1794.5 339.465 1794.5 340.418ZM1957.72 340.418C1957.72 342.96 1949.14 353.841 1931.98 373.062C1912.76 394.349 1887.9 413.332 1857.4 430.012L1845.49 451.695C1823.88 491.568 1799.66 522.306 1772.81 543.91C1747.08 564.72 1724.84 575.125 1706.09 575.125C1699.26 575.125 1693.62 573.06 1689.18 568.93C1684.73 564.799 1682.5 559.716 1682.5 553.68C1682.5 521.115 1719.28 488.073 1792.83 454.555C1808.71 447.247 1818.96 442.323 1823.57 439.781L1864.07 365.199C1846.44 388.551 1833.97 403.642 1826.66 410.473C1819.52 417.145 1812.13 420.48 1804.5 420.48C1796.24 420.48 1789.17 416.827 1783.3 409.52C1777.58 402.212 1774.72 393.316 1774.72 382.832C1774.72 355.35 1792.67 330.41 1828.57 308.012C1852.56 293.079 1871.38 285.613 1885.04 285.613C1894.57 285.613 1899.34 290.855 1899.34 301.34C1899.34 304.199 1898.62 307.615 1897.2 311.586L1910.54 287.52C1914.83 288.632 1918.56 289.188 1921.74 289.188C1925.87 289.188 1931.9 288.632 1939.85 287.52C1938.74 288.949 1931.75 300.863 1918.88 323.262L1859.79 425.246C1880.6 413.491 1897.2 402.133 1909.59 391.172C1922.14 380.211 1936.27 364.405 1952 343.754C1954.38 340.577 1955.97 338.988 1956.77 338.988C1957.4 339.147 1957.72 339.624 1957.72 340.418ZM1896.72 301.34C1896.72 293.238 1892.83 289.188 1885.04 289.188C1870.75 289.188 1851.76 303.484 1828.09 332.078C1804.58 360.513 1792.83 383.467 1792.83 400.941C1792.83 411.585 1797.43 416.906 1806.65 416.906C1816.02 416.906 1831.91 402.768 1854.3 374.492C1882.58 338.75 1896.72 314.366 1896.72 301.34ZM1821.18 443.832C1818.17 445.579 1809.19 450.107 1794.26 457.414C1721.82 493.315 1685.6 525.562 1685.6 554.156C1685.6 559.081 1687.43 563.211 1691.08 566.547C1694.74 569.883 1699.42 571.551 1705.14 571.551C1722.61 571.551 1739.61 562.576 1756.13 544.625C1772.65 526.833 1793.38 494.824 1818.32 448.598C1818.32 448.598 1819.28 447.009 1821.18 443.832ZM2592.98 167.188C2592.98 175.448 2591.86 184.503 2589.64 194.352C2587.42 204.201 2585.27 209.125 2583.21 209.125C2581.62 209.125 2580.82 208.331 2580.82 206.742C2580.82 206.266 2580.98 205.551 2581.3 204.598C2585.59 193.478 2587.73 181.484 2587.73 168.617C2587.73 148.602 2581.78 132.557 2569.86 120.484C2557.95 108.253 2542.22 102.137 2522.68 102.137C2495.84 102.137 2468.67 110.794 2441.19 128.109C2464.7 146.854 2476.46 167.188 2476.46 189.109C2476.46 207.695 2468.99 223.581 2454.06 236.766C2439.29 249.792 2419.75 257.814 2395.44 260.832C2411.96 270.363 2420.22 284.184 2420.22 302.293C2420.22 314.366 2416.01 332.714 2407.59 357.336C2402.03 373.539 2399.25 386.247 2399.25 395.461C2399.25 404.992 2402.67 413.014 2409.5 419.527C2416.33 426.199 2424.67 429.535 2434.52 429.535C2444.69 429.535 2454.3 426.12 2463.35 419.289C2465.42 418.018 2466.85 417.383 2467.64 417.383C2468.91 417.383 2469.55 418.018 2469.55 419.289C2469.55 421.99 2465.1 425.087 2456.2 428.582C2447.31 432.236 2439.6 434.062 2433.09 434.062C2417.84 434.062 2405.05 427.947 2394.73 415.715C2384.4 403.642 2379.24 388.63 2379.24 370.68C2379.24 357.654 2384.96 334.699 2396.39 301.816C2399.25 293.397 2400.68 286.249 2400.68 280.371C2400.68 272.905 2397.59 266.551 2391.39 261.309C2381.22 262.262 2375.43 262.738 2374 262.738C2358.27 262.738 2350.41 260.753 2350.41 256.781C2350.41 254.24 2354.38 252.969 2362.32 252.969C2371.69 252.969 2381.07 254.796 2390.44 258.449C2409.34 255.431 2424.83 246.694 2436.9 232.238C2448.98 217.624 2455.01 200.467 2455.01 180.77C2455.01 165.202 2448.98 150.27 2436.9 135.973L2434.52 132.875C2399.73 158.927 2366.85 204.359 2335.87 269.172C2317.13 308.409 2299.97 336.685 2284.4 354C2268.83 371.315 2246.99 386.962 2218.88 400.941C2185.67 417.145 2156.05 425.246 2130 425.246C2108.71 425.246 2091 420.401 2076.86 410.711C2062.72 400.862 2055.65 388.63 2055.65 374.016C2055.65 365.914 2058.04 358.924 2062.8 353.047C2067.73 347.169 2073.52 344.23 2080.2 344.23C2089.89 344.23 2094.73 349.632 2094.73 360.434C2094.73 365.835 2093.06 370.441 2089.73 374.254C2086.55 378.066 2082.58 379.973 2077.81 379.973C2069.55 379.973 2065.58 375.684 2065.9 367.105C2066.06 363.611 2065.74 361.863 2064.95 361.863C2062.4 361.863 2061.13 366.073 2061.13 374.492C2061.13 387.677 2067.57 398.638 2080.43 407.375C2093.46 416.112 2109.82 420.48 2129.52 420.48C2164.31 420.48 2195.84 407.613 2224.12 381.879C2236.51 370.6 2247.07 359.083 2255.81 347.328C2265.34 334.62 2286.15 303.802 2318.24 254.875C2334.28 230.729 2353.19 206.504 2374.95 182.199C2396.71 157.895 2415.22 140.5 2430.47 130.016C2405.69 108.888 2369.31 98.3242 2321.34 98.3242C2254.3 98.3242 2196 122.549 2146.44 171C2105.77 210.714 2085.44 248.124 2085.44 283.23C2085.44 301.022 2091.16 315.16 2102.59 325.645C2114.03 336.129 2129.52 341.371 2149.06 341.371C2180.99 341.371 2213.95 326.042 2247.95 295.383C2282.1 264.724 2299.18 234.939 2299.18 206.027C2299.18 182.993 2287.34 171.477 2263.67 171.477C2240 171.477 2214.59 184.741 2187.42 211.27C2160.42 237.639 2146.91 262.421 2146.91 285.613C2146.91 291.332 2148.82 296.257 2152.63 300.387C2156.45 304.517 2160.89 306.582 2165.98 306.582C2168.68 306.582 2170.03 307.297 2170.03 308.727C2170.03 309.997 2168.52 310.633 2165.5 310.633C2157.88 310.633 2151.44 307.217 2146.2 300.387C2140.96 293.397 2138.34 284.898 2138.34 274.891C2138.34 250.109 2151.92 225.964 2179.08 202.453C2206.25 178.943 2234.12 167.188 2262.72 167.188C2290.04 167.188 2303.7 179.816 2303.7 205.074C2303.7 235.892 2286.31 267.027 2251.52 298.48C2216.73 329.934 2182.42 345.66 2148.58 345.66C2126.5 345.66 2108.79 339.068 2095.45 325.883C2082.26 312.539 2075.67 294.747 2075.67 272.508C2075.67 227.552 2101.01 186.568 2151.68 149.555C2202.51 112.383 2258.67 93.7969 2320.14 93.7969C2366.85 93.7969 2406.08 104.202 2437.86 125.012C2466.93 106.902 2495.04 97.8477 2522.21 97.8477C2543.49 97.8477 2560.57 104.202 2573.44 116.91C2586.46 129.618 2592.98 146.378 2592.98 167.188ZM2663.27 340.418C2663.27 343.754 2651.67 359.163 2628.48 386.645C2609.74 409.202 2594.96 420.48 2584.16 420.48C2576.85 420.48 2570.9 417.78 2566.29 412.379C2561.68 406.819 2559.38 399.909 2559.38 391.648C2559.38 383.07 2561.92 373.777 2567 363.77C2551.12 386.009 2538.97 401.021 2530.55 408.805C2522.13 416.589 2513.95 420.48 2506 420.48C2497.58 420.48 2490.52 416.906 2484.8 409.758C2479.08 402.451 2476.22 393.316 2476.22 382.355C2476.22 351.855 2497.74 324.85 2540.79 301.34C2559.7 290.855 2574.95 285.613 2586.54 285.613C2596.39 285.613 2601.32 290.379 2601.32 299.91C2601.32 302.611 2600.68 306.185 2599.41 310.633L2611.56 287.52C2616.33 288.632 2620.54 289.188 2624.19 289.188C2628.48 289.188 2634.04 288.632 2640.87 287.52L2598.7 357.336C2584.08 381.799 2576.77 397.923 2576.77 405.707C2576.77 413.173 2579.87 416.906 2586.07 416.906C2592.42 416.906 2602.59 409.678 2616.57 395.223C2630.55 380.608 2644.76 362.658 2659.22 341.371C2660.17 339.783 2661.05 338.988 2661.84 338.988C2662.79 338.988 2663.27 339.465 2663.27 340.418ZM2597.74 300.863C2597.74 293.079 2594.17 289.188 2587.02 289.188C2572.4 289.188 2553.18 303.484 2529.36 332.078C2505.69 360.672 2493.85 383.785 2493.85 401.418C2493.85 411.743 2498.46 416.906 2507.67 416.906C2518.63 416.906 2537.62 398.717 2564.62 362.34C2586.7 332.475 2597.74 311.983 2597.74 300.863ZM2854.85 340.418C2854.85 343.754 2843.33 359.163 2820.3 386.645C2801.39 409.202 2786.54 420.48 2775.74 420.48C2768.59 420.48 2762.55 417.701 2757.63 412.141C2752.86 406.581 2750.48 399.75 2750.48 391.648C2750.48 384.5 2751.91 377.908 2754.77 371.871C2757.79 365.676 2765.49 353.523 2777.88 335.414C2790.75 316.352 2797.18 304.199 2797.18 298.957C2797.18 292.444 2793.77 289.188 2786.94 289.188C2763.74 289.188 2728 332.237 2679.71 418.336C2671.93 417.701 2667.24 417.383 2665.65 417.383C2660.09 417.383 2654.85 417.701 2649.93 418.336L2687.1 359.48C2708.23 325.803 2718.79 304.755 2718.79 296.336C2718.79 291.57 2716.8 289.188 2712.83 289.188C2704.73 289.188 2688.77 306.264 2664.94 340.418C2663.51 342.483 2662.4 343.595 2661.6 343.754C2660.81 343.754 2660.33 343.277 2660.17 342.324C2660.33 341.53 2660.65 340.895 2661.12 340.418L2665.65 334.461C2689.96 301.896 2706.32 285.613 2714.74 285.613C2720.14 285.613 2724.75 288.076 2728.56 293C2732.37 297.924 2734.28 303.802 2734.28 310.633C2734.28 320.799 2728.32 334.938 2716.41 353.047C2735.15 327.154 2749.53 309.441 2759.54 299.91C2769.7 290.379 2779.07 285.613 2787.65 285.613C2794.64 285.613 2800.52 288.473 2805.29 294.191C2810.05 299.91 2812.43 306.979 2812.43 315.398C2812.43 326.042 2805.13 342.324 2790.51 364.246C2775.58 386.645 2768.11 400.941 2768.11 407.137C2768.11 413.65 2771.37 416.906 2777.88 416.906C2792.02 416.906 2816.4 391.728 2851.04 341.371C2851.83 339.783 2852.62 338.988 2853.42 338.988C2854.37 338.988 2854.85 339.465 2854.85 340.418ZM2973.27 340.418C2973.27 342.483 2962.07 355.827 2939.68 380.449C2915.21 407.137 2894.4 420.48 2877.25 420.48C2866.13 420.48 2856.6 416.271 2848.65 407.852C2840.71 399.273 2836.74 389.107 2836.74 377.352C2836.74 364.008 2842.14 350.188 2852.94 335.891C2863.74 321.594 2878.28 309.283 2896.55 298.957C2911.96 290.061 2924.51 285.613 2934.2 285.613C2945.95 285.613 2951.83 292.603 2951.83 306.582C2951.83 317.543 2948.1 328.504 2940.63 339.465C2933.32 350.426 2926.01 355.906 2918.71 355.906C2911.56 355.906 2907.98 352.332 2907.98 345.184C2907.98 336.764 2915.29 328.98 2929.91 321.832C2941.18 316.272 2946.82 308.965 2946.82 299.91C2946.82 292.762 2942.93 289.188 2935.15 289.188C2921.96 289.188 2905.76 302.293 2886.54 328.504C2867.32 354.715 2857.71 376.716 2857.71 394.508C2857.71 409.44 2864.7 416.906 2878.68 416.906C2900.6 416.906 2930.3 392.204 2967.79 342.801C2969.86 340.259 2971.37 338.988 2972.32 338.988C2972.96 339.147 2973.27 339.624 2973.27 340.418ZM3125.54 339.941C3125.54 341.212 3124.74 342.642 3123.15 344.23L3112.91 358.289C3083.04 399.75 3060.8 420.48 3046.19 420.48C3038.56 420.48 3032.29 417.78 3027.36 412.379C3022.6 406.819 3020.21 399.909 3020.21 391.648C3020.21 380.529 3026.25 365.993 3038.32 348.043C3057.23 320.243 3066.68 303.723 3066.68 298.48C3066.68 292.285 3063.42 289.188 3056.91 289.188C3047.38 289.188 3034.35 298.56 3017.83 317.305C3001.95 335.255 2980.1 369.25 2952.3 419.289C2947.54 418.336 2943.49 417.859 2940.15 417.859C2936.66 417.859 2931.97 418.336 2926.09 419.289L2961.12 355.906C2965.89 346.852 2973.19 333.508 2983.04 315.875C2988.29 307.297 3004.41 279.974 3031.41 233.906L3067.63 172.43C3072.4 173.383 3076.45 173.859 3079.79 173.859C3086.14 173.859 3092.18 173.065 3097.89 171.477C3081.37 198.005 3056.75 237.719 3024.03 290.617C3023.07 292.206 3010.76 312.698 2987.09 352.094C3016.96 307.773 3040.55 285.613 3057.86 285.613C3064.69 285.613 3070.49 288.552 3075.26 294.43C3080.18 300.307 3082.64 307.456 3082.64 315.875C3082.64 326.836 3075.65 342.642 3061.68 363.293C3046.11 386.327 3038.32 400.783 3038.32 406.66C3038.32 413.491 3041.74 416.906 3048.57 416.906C3060.96 416.906 3081.45 396.891 3110.05 356.859L3117.43 346.613L3121.72 341.371C3122.52 339.783 3123.47 338.988 3124.58 338.988C3125.22 338.988 3125.54 339.306 3125.54 339.941Z" fill="#1C3664"/>
</svg>
